<?xml version="1.0" encoding="UTF-8"?>
<svg id="Layer_1" xmlns="http://www.w3.org/2000/svg" xmlns:xlink="http://www.w3.org/1999/xlink" viewBox="0 0 1300 900">
  <defs>
    <style>
      .cls-1 {
        fill: url(#linear-gradient-2);
      }

      .cls-2 {
        fill: #0c2f2b;
      }

      .cls-3 {
        fill: #2aa751;
      }

      .cls-4 {
        fill: url(#linear-gradient);
      }
    </style>
    <linearGradient id="linear-gradient" x1="424.49" y1="456.94" x2="434.56" y2="461.05" gradientUnits="userSpaceOnUse">
      <stop offset="0" stop-color="#266b2c"/>
      <stop offset="1" stop-color="#279a31" stop-opacity="0"/>
    </linearGradient>
    <linearGradient id="linear-gradient-2" x1="450.67" y1="456.65" x2="461.4" y2="461.6" xlink:href="#linear-gradient"/>
  </defs>
  <path class="cls-2" d="M515.83,475.53v-45.28h9.83l12.87,29.23,12.68-29.23h9.83v45.28h-8.28v-30.53l-11.06,24.77h-6.53l-11.06-24.77v30.53h-8.28Z"/>
  <path class="cls-2" d="M582.77,476.3c-3.23,0-6.11-.7-8.63-2.1-2.52-1.4-4.49-3.37-5.92-5.92-1.42-2.54-2.13-5.48-2.13-8.8,0-3.49.77-6.5,2.3-9.02,1.53-2.52,3.58-4.45,6.15-5.79,2.56-1.34,5.4-2,8.5-2s6.12.7,8.67,2.1c2.54,1.4,4.56,3.35,6.05,5.85,1.49,2.5,2.23,5.45,2.23,8.86s-.73,6.12-2.2,8.67c-1.47,2.54-3.48,4.54-6.05,5.98-2.57,1.44-5.55,2.17-8.96,2.17ZM582.9,469.12c1.72,0,3.22-.44,4.49-1.33,1.27-.88,2.27-2.07,3.01-3.56.73-1.49,1.1-3.11,1.1-4.88,0-2.03-.4-3.75-1.2-5.18-.8-1.42-1.84-2.5-3.14-3.23-1.29-.73-2.72-1.1-4.27-1.1-1.68,0-3.16.41-4.43,1.23-1.27.82-2.26,1.95-2.97,3.4-.71,1.45-1.07,3.12-1.07,5.01s.38,3.58,1.13,5.05c.75,1.47,1.78,2.6,3.07,3.4,1.29.8,2.72,1.2,4.27,1.2Z"/>
  <path class="cls-2" d="M617.31,476.3c-2.76,0-5.11-.59-7.05-1.78s-3.43-2.82-4.46-4.92c-1.03-2.09-1.55-4.47-1.55-7.15v-19.02h8.21v17.79c0,2.37.61,4.31,1.84,5.82,1.23,1.51,3.03,2.26,5.4,2.26s4.29-.73,5.5-2.2c1.21-1.47,1.81-3.43,1.81-5.89v-17.79h8.28v32.08h-8.28v-3.75c-1.08,1.47-2.49,2.59-4.24,3.36-1.75.78-3.57,1.16-5.46,1.16Z"/>
  <path class="cls-2" d="M641.11,475.53v-32.08h8.21v3.75c1.12-1.51,2.62-2.64,4.49-3.4,1.88-.75,3.76-1.13,5.66-1.13,3.71,0,6.75,1.2,9.12,3.59,2.37,2.39,3.56,5.85,3.56,10.38v18.89h-8.21v-17.79c0-2.41-.61-4.37-1.84-5.85-1.23-1.49-3.03-2.23-5.4-2.23s-4.19.74-5.47,2.23c-1.27,1.49-1.91,3.44-1.91,5.85v17.79h-8.21Z"/>
  <path class="cls-2" d="M690.07,475.53c-3.45,0-6.05-.84-7.79-2.52-1.75-1.68-2.62-4.2-2.62-7.57v-15.07h-4.14v-6.92h4.14v-7.83h8.28v7.83h7.31v6.92h-7.31v15.13c0,1.21.32,2.03.97,2.46.65.43,1.49.65,2.52.65h3.82v6.92h-5.17Z"/>
  <path class="cls-2" d="M710,476.3c-1.9,0-3.67-.39-5.3-1.16-1.64-.78-2.97-1.89-3.98-3.33-1.01-1.44-1.52-3.16-1.52-5.14,0-2.37.58-4.31,1.75-5.82,1.16-1.51,2.77-2.63,4.82-3.36,2.05-.73,4.34-1.1,6.89-1.1h7.63c0-1.46-.23-2.69-.68-3.69-.45-.99-1.12-1.76-2-2.3-.88-.54-1.97-.81-3.27-.81-1.51,0-2.86.33-4.04,1-1.19.67-1.91,1.78-2.17,3.33h-8.28c.22-2.33,1.01-4.33,2.39-6.02,1.38-1.68,3.15-2.97,5.3-3.88,2.16-.91,4.46-1.36,6.92-1.36,3.02,0,5.57.56,7.66,1.68,2.09,1.12,3.7,2.71,4.82,4.75,1.12,2.05,1.68,4.47,1.68,7.28v9.77c.09.95.43,1.6,1.03,1.94.6.35,1.4.52,2.39.52v6.92c-2.03,0-3.72-.19-5.08-.58-1.36-.39-2.47-.96-3.33-1.71-.86-.75-1.6-1.71-2.2-2.88-.99,1.68-2.53,3.09-4.62,4.24-2.09,1.14-4.37,1.71-6.82,1.71ZM712.39,469.64c1.42,0,2.73-.32,3.91-.97,1.19-.65,2.14-1.55,2.88-2.72.73-1.16,1.1-2.5,1.1-4.01v-.26h-7.12c-.95,0-1.85.14-2.72.42-.86.28-1.55.71-2.07,1.29s-.78,1.37-.78,2.36c0,1.34.46,2.32,1.39,2.94.93.63,2.06.94,3.4.94Z"/>
  <path class="cls-2" d="M740.2,439.3c-1.47,0-2.73-.53-3.78-1.58-1.06-1.06-1.58-2.32-1.58-3.78s.53-2.78,1.58-3.82c1.06-1.03,2.32-1.55,3.78-1.55s2.78.52,3.82,1.55,1.55,2.31,1.55,3.82-.52,2.73-1.55,3.78c-1.03,1.06-2.31,1.58-3.82,1.58ZM736.06,475.53v-32.08h8.28v32.08h-8.28Z"/>
  <path class="cls-2" d="M750.42,475.53v-32.08h8.21v3.75c1.12-1.51,2.62-2.64,4.49-3.4,1.88-.75,3.76-1.13,5.66-1.13,3.71,0,6.75,1.2,9.12,3.59,2.37,2.39,3.56,5.85,3.56,10.38v18.89h-8.21v-17.79c0-2.41-.61-4.37-1.84-5.85-1.23-1.49-3.03-2.23-5.4-2.23s-4.19.74-5.47,2.23c-1.27,1.49-1.91,3.44-1.91,5.85v17.79h-8.21Z"/>
  <path class="cls-2" d="M791.8,475.53l16.69-45.28h5.76l16.62,45.28h-5.76l-4.14-11.64h-19.27l-4.2,11.64h-5.69ZM803.31,459.49h16.04l-8.02-22.38-8.02,22.38Z"/>
  <path class="cls-2" d="M849.56,476.3c-2.55,0-4.83-.44-6.86-1.32-2.03-.88-3.65-2.14-4.88-3.75-1.23-1.62-1.99-3.53-2.3-5.73h5.56c.34,1.68,1.24,3.14,2.68,4.37,1.44,1.23,3.4,1.84,5.85,1.84,2.29,0,3.97-.48,5.05-1.46,1.08-.97,1.62-2.12,1.62-3.46s-.31-2.29-.94-2.98c-.62-.69-1.53-1.22-2.72-1.58s-2.64-.72-4.37-1.07c-1.81-.39-3.58-.91-5.3-1.58-1.72-.67-3.15-1.58-4.27-2.75-1.12-1.17-1.68-2.69-1.68-4.59s.47-3.56,1.42-4.98c.95-1.42,2.3-2.54,4.04-3.36,1.75-.82,3.81-1.23,6.18-1.23,3.41,0,6.2.85,8.38,2.56,2.18,1.7,3.44,4.13,3.78,7.28h-5.37c-.22-1.64-.92-2.92-2.1-3.85-1.19-.93-2.77-1.39-4.75-1.39s-3.44.41-4.49,1.23c-1.06.82-1.58,1.9-1.58,3.23,0,.86.3,1.6.9,2.2.6.6,1.48,1.12,2.62,1.55,1.14.43,2.49.82,4.04,1.16,2.15.43,4.12.97,5.88,1.62,1.77.65,3.19,1.59,4.27,2.82,1.08,1.23,1.62,2.99,1.62,5.27.04,1.9-.44,3.6-1.46,5.11-1.01,1.51-2.44,2.69-4.27,3.56-1.83.86-4.02,1.29-6.56,1.29Z"/>
  <path class="cls-2" d="M869.61,475.53v-45.28h5.43v18.69c1.08-1.98,2.61-3.53,4.59-4.63,1.98-1.1,4.14-1.65,6.47-1.65,3.71,0,6.68,1.15,8.93,3.46,2.24,2.31,3.36,5.85,3.36,10.64v18.76h-5.37v-18.17c0-3.32-.68-5.82-2.04-7.5-1.36-1.68-3.37-2.52-6.05-2.52-2.8,0-5.15,1-7.05,3.01-1.9,2-2.85,4.86-2.85,8.57v16.62h-5.43Z"/>
  <polygon class="cls-3" points="430.02 441.98 422.28 462.07 417.09 475.52 401.61 475.52 414.21 442.83 414.8 442.66 428.76 438.72 430.02 441.98"/>
  <polygon class="cls-4" points="435.39 455.9 427.83 475.52 427.83 475.52 422.28 462.07 430.02 441.98 435.39 455.9"/>
  <polygon class="cls-3" points="456.26 441.92 448.52 462 443.31 475.52 427.83 475.52 435.39 455.9 440.78 441.92 443.63 434.53 452.45 432.04 456.26 441.92"/>
  <polygon class="cls-1" points="461.63 455.85 454.05 475.52 454.05 475.52 448.52 462 456.26 441.92 461.63 455.85"/>
  <polygon class="cls-3" points="501.99 475.52 486.5 475.52 478.02 453.51 469.53 475.52 454.05 475.52 461.63 455.85 470.28 433.43 470.28 433.42 473.04 426.23 473.05 426.23 482.01 423.7 485.76 433.42 501.99 475.52"/>
</svg>